# xmcd CD database file
#
# Track frame offsets:
#	183
#	4733
#	11068
#	16283
#	24193
#	28558
#	34713
#	42700
#	48145
#	50663
#	56715
#	64193
#	70415
#	74508
#	79663
#	84618
#	91533
#	98335
#	103023
#	108348
#	113853
#	118533
#	124143
#	132033
#	136843
#	143573
#
# Disc length: 2055 seconds
#
# Revision: 2
# Processed by: cddbd v1.4b41PL1 Copyright (c) Steve Scherf et al.
# Submitted via: Feurio! 1.50.2ß - http://www.feurio.com
#
DISCID=5308051a
DTITLE=Various Artist - National Hymnen
DYEAR=1900
DGENRE=
TTITLE0=??? - Australien
TTITLE1=??? - Österreich
TTITLE2=??? - Belgien
TTITLE3=??? - Brasilien
TTITLE4=??? - Grossbritannien
TTITLE5=??? - Kanada
TTITLE6=??? - Tschecheslowakei
TTITLE7=??? - Dänemark
TTITLE8=??? - Äghypten
TTITLE9=??? - Finnland
TTITLE10=??? - Frankreich
TTITLE11=??? - Deutschland
TTITLE12=??? - Griechenland
TTITLE13=??? - Niederlande
TTITLE14=??? - Irland
TTITLE15=??? - Israel
TTITLE16=??? - Italien
TTITLE17=??? - Japan
TTITLE18=??? - Norwegen
TTITLE19=??? - Portugal
TTITLE20=??? - Spanien
TTITLE21=??? - Südafrika
TTITLE22=??? - Schweden
TTITLE23=??? - Türkei
TTITLE24=??? - USA
TTITLE25=??? - UdSSR
EXTD=
EXTT0=
EXTT1=
EXTT2=
EXTT3=
EXTT4=
EXTT5=
EXTT6=
EXTT7=
EXTT8=
EXTT9=
EXTT10=
EXTT11=
EXTT12=
EXTT13=
EXTT14=
EXTT15=
EXTT16=
EXTT17=
EXTT18=
EXTT19=
EXTT20=
EXTT21=
EXTT22=
EXTT23=
EXTT24=
EXTT25=
PLAYORDER=
